<svg xmlns="http://www.w3.org/2000/svg" xmlns:xlink="http://www.w3.org/1999/xlink" width="1024" height="1024">
  <path transform="scale(2 2)" d="M67.2137 221.477C70.3555 215.522 129.03 168.233 136.775 161.769L231.94 81.959C236.774 77.9248 250.204 64.9971 255.748 64.0653C261.605 64.4665 273.86 77.1981 278.835 81.234L328.704 122.16C333.581 126.085 338.357 130.141 343.342 133.931L343.318 111.643C343.3 94.1801 341.054 93.536 357.714 93.5305L388.141 93.5149C392.574 93.5159 399.581 92.1345 400.504 98.1115C401.489 104.492 400.891 111.637 400.89 118.105L400.864 174.795C400.831 177.433 400.606 180.085 400.9 182.716C404.274 186.577 408.682 189.913 412.553 193.277L434.31 212.142C437.699 215.093 441.566 218.03 444.448 221.477L444.453 253.845C444.465 259.465 447.346 281.14 435.273 275.024C431.746 273.237 428.478 269.59 425.472 266.995C418.759 261.202 408.066 251.512 400.9 246.709C400.716 251.621 400.896 256.598 400.897 261.518L400.901 416.415C400.898 436.257 404.967 438.214 383.033 438.215L297.375 438.205L136.02 438.22C129.444 438.224 112.21 441.396 111.539 432.752C110.973 425.466 111.322 418.001 111.323 410.689L111.318 246.709C103.591 251.998 93.9898 260.864 86.8105 267.066C81.6554 271.52 73.2353 281.216 67.2137 272.226C66.8528 266.705 67.2039 260.965 67.2048 255.414L67.2137 221.477ZM255.748 77.4643L87.3927 218.795C84.635 221.087 81.5797 223.39 79.2409 226.116L79.2409 257.109C83.6775 254.914 88.2363 250.145 92.091 246.897L207.377 150.062C214.37 144.273 248.743 113.698 255.748 111.518C260.214 111.465 267.596 119.508 271.057 122.337L420.961 247.228C424.598 250.212 428.192 253.718 432.13 256.249C431.631 246.233 432.854 236.078 432.13 226.116C425.018 220.268 418.253 214.011 411.359 207.913L383.893 184.069C355.78 159.95 327.154 136.44 298.558 112.898L270.481 89.6098C265.822 85.7084 260.747 80.7622 255.748 77.4643ZM358.795 105.191L355.273 105.191L355.273 145.064C365.628 152.919 376.979 164.458 387 171.293L387.966 171.821L388.285 171.721C389.534 166.494 388.983 154.003 388.984 148.145L388.976 105.191L358.795 105.191ZM255.748 125.004C251.44 128.958 246.878 132.527 242.38 136.257L132.749 228.495C129.613 231.185 126.223 233.797 123.308 236.711L123.308 426.394C128.205 426.602 133.153 426.399 138.058 426.396L256.343 426.394L388.976 426.394L388.976 236.711C367.32 217.225 344.238 199.193 321.947 180.44L283.885 148.43C274.614 140.557 265.41 132.391 255.748 125.004Z"/>
  <path transform="scale(2 2)" d="M306.256 369.772C300.081 370.095 293.722 369.775 287.526 369.775L221.28 369.778C197.445 369.854 193.381 370.823 193.384 347.716L193.384 283.531C193.386 271.071 189.228 250.873 205.271 248.323C210.894 248.002 216.724 248.312 222.369 248.314L287.896 248.313C313.291 248.304 318.21 246.001 318.184 276.058L318.179 338.111C318.183 349.622 321.634 367.005 306.256 369.772ZM264.29 260.238C263.498 260.251 262.776 260.181 262.037 260.493C260.571 271.409 262.095 291.263 261.942 303.022L303.956 303.022C308.398 303.124 306.265 293.154 306.266 288.607L306.256 260.238L277.881 260.224C273.46 260.221 268.677 259.836 264.29 260.238ZM205.271 260.238L205.271 303.022L250.034 303.022L250.034 260.238C235.12 260.237 220.181 260.043 205.271 260.238ZM277.978 314.98L261.942 314.98C261.706 329.228 261.945 343.517 261.942 357.769L290.139 357.769C309.973 357.845 306.265 360.798 306.267 340.61L306.256 314.98C302.977 314.756 299.662 314.956 296.376 314.971L277.978 314.98ZM205.271 314.98L205.271 357.769L250.034 357.769L250.034 314.98L205.271 314.98Z"/>
</svg>
